<?xml version="1.0" encoding="UTF-8"?>
<svg width="180px" height="180px" viewBox="0 0 180 180" version="1.1" xmlns="http://www.w3.org/2000/svg" xmlns:xlink="http://www.w3.org/1999/xlink">
    <title>icon</title>
    <g id="Page-1" stroke="none" stroke-width="1" fill="none" fill-rule="evenodd">
        <rect id="Rectangle" fill="#FFFFFF" x="0" y="1.42108547e-14" width="180" height="180"></rect>
        <g id="Ditto" transform="translate(9.354597, 49.846154)" fill="#161616">
            <path d="M0,76.1538462 L20.3356212,4.15384615 L46.1605191,4.15384615 C40.9871289,17.1271892 36.7101612,27.8991308 33.329616,36.4696712 C29.9490707,45.0402115 24.7595306,58.2682698 17.7609958,76.1538462 L0,76.1538462 Z" id="Path"></path>
        </g>
        <g id="Ditto" transform="translate(87.585366, 49.846154)" fill="#161616">
            <path d="M0,76.1538462 L20.3356212,4.15384615 L46.1605191,4.15384615 C40.9871289,17.1271892 36.7101612,27.8991308 33.329616,36.4696712 C29.9490707,45.0402115 24.7595306,58.2682698 17.7609958,76.1538462 L0,76.1538462 Z" id="Path"></path>
        </g>
        <g id="Ditto" transform="translate(125.662289, 49.846154)" fill="#161616">
            <path d="M0,76.1538462 L20.3356212,4.15384615 L46.1605191,4.15384615 C40.9871289,17.1271892 36.7101612,27.8991308 33.329616,36.4696712 C29.9490707,45.0402115 24.7595306,58.2682698 17.7609958,76.1538462 L0,76.1538462 Z" id="Path"></path>
        </g>
    </g>
</svg>